<svg xmlns="http://www.w3.org/2000/svg" width="40" height="44.8" viewBox="0 0 40 44.8">
  <path id="player-logo" d="M244.118,347.589a29.163,29.163,0,0,1,4.278-2.546c2.218-1.3,4.461-2.56,6.675-3.868l8.076-4.769,2.487-1.469L254.892,328.7v9.956s.2.832-1.5,1.788c-2.733,1.541-5.39,3.228-8.065,4.867-.759.465-2.045.136-2.045-.891V327.993q0-5.072-.022-10.143a4.147,4.147,0,0,1,.529-2.343,6.873,6.873,0,0,1,2.625-2.385,5.556,5.556,0,0,1,4.512-.205L280.552,330.1c2.724,1.58,3.116,4.807,2.1,7.542a5.548,5.548,0,0,1-2.526,2.683c-3.053,1.833-6.228,3.493-9.316,5.272l-8.661,4.987L254.477,355l-2.542,1.464a5.343,5.343,0,0,1-2.974.867,7.466,7.466,0,0,1-1.868-.25,5.186,5.186,0,0,1-3.531-3.9C243.149,351.608,242.728,348.772,244.118,347.589Z" transform="translate(-243.163 -312.526)" fill="#ed2148"/>
</svg>
