<svg xmlns="http://www.w3.org/2000/svg" width="434.643" height="730.151" viewBox="0 0 434.643 730.151">
  <g id="tay-player-logo" transform="translate(-53 -35)">
    <path id="Intersection_1" data-name="Intersection 1" d="M94.507,730.141a121.663,121.663,0,0,1-30.443-4.081c-30.622-8.419-49.673-33.866-57.546-63.6-6.746-25.51-13.611-71.736,9.046-91.022,20.255-17.238,46.843-28.081,69.719-41.5,36.148-21.2,72.7-41.723,108.783-63.034l131.627-77.731,40.527-23.938L191.15,263.572V425.836s3.26,13.564-24.367,29.136c-44.546,25.111-87.848,52.613-131.448,79.319C22.967,541.867,2.008,536.5,2.008,519.774V252.08q0-82.66-.352-165.306C1.617,73.742,2.837,59.7,10.28,48.592,21.115,32.433,35.468,18.345,53.058,9.715,73.736-.441,105.233-4.31,126.591,6.369L434.643,185.016V548.05L309.377,620.177,184.4,692.155l-41.426,23.852c-15.851,9.13-28.948,14.144-47.049,14.145C95.452,730.151,94.982,730.147,94.507,730.141Z" transform="translate(53 35)" fill="#171717" opacity="0.14"/>
    <g id="Group_586" data-name="Group 586" transform="translate(-107.587 41.151)">
      <path id="Path_283" data-name="Path 283" d="M226.587,311.849h88.4v30.9H286.072v63.773h-30.9V342.856H226.587Z" fill="#fff"/>
      <path id="Path_284" data-name="Path 284" d="M375.012,312.149H350.239L313.56,406.317H342.4l6.947-19.119h26.707l7.35,19.119h29.308ZM355.1,364.168c-.061-1.17,5.8-22.359,6.745-24.165,2.281,8.137,4.507,16.079,6.774,24.165Z" fill="#fff"/>
      <path id="Path_285" data-name="Path 285" d="M401.444,312.526h32.688q5.856,10.988,11.711,21.974l12.038-21.974H491.2l-30.25,48.942v45.149H430.7V361.558Z" fill="#fff"/>
      <g id="Group_585" data-name="Group 585">
        <path id="Path_286" data-name="Path 286" d="M514.856,356.249h14.036v10.116H514.856v15.788h-8.992V366.365H491.829V356.249h14.035v-15.79h8.992Z" fill="#fff" stroke="#fff" stroke-miterlimit="10" stroke-width="3"/>
      </g>
    </g>
  </g>
</svg>
